<svg width="702" height="1054" viewBox="0 0 702 1054" fill="none" xmlns="http://www.w3.org/2000/svg">
<g filter="url(#filter0_f_61_1072)">
<path d="M813.474 522.387C812.475 474.337 787.578 428.683 744.084 395.146C700.59 361.608 641.934 342.837 580.607 342.828C519.28 342.819 460.126 361.574 415.74 395.099C371.353 428.624 345.242 474.27 342.965 522.319C340.688 570.368 362.425 617.024 403.548 652.352C444.671 687.681 501.932 708.891 563.137 711.466C624.343 714.042 684.658 697.78 731.241 666.142C777.824 634.504 806.995 589.991 812.541 542.079L721.244 536.315C717.857 565.564 700.049 592.739 671.611 612.053C643.173 631.367 606.352 641.295 568.987 639.722C531.622 638.15 496.665 625.202 471.56 603.634C446.455 582.067 433.185 553.584 434.575 524.251C435.965 494.918 451.906 467.052 479.003 446.585C506.1 426.119 542.212 414.67 579.652 414.675C617.091 414.68 652.899 426.14 679.452 446.614C706.004 467.088 721.203 494.959 721.813 524.293L813.474 522.387Z" fill="#00ADB5" fill-opacity="0.8"/>
</g>
<defs>
<filter id="filter0_f_61_1072" x="0.702545" y="0.728058" width="1154.87" height="1053.1" filterUnits="userSpaceOnUse" color-interpolation-filters="sRGB">
<feFlood flood-opacity="0" result="BackgroundImageFix"/>
<feBlend mode="normal" in="SourceGraphic" in2="BackgroundImageFix" result="shape"/>
<feGaussianBlur stdDeviation="171.05" result="effect1_foregroundBlur_61_1072"/>
</filter>
</defs>
</svg>
